Coordinates
version=1
nRows=27
nColumns=26
inDegrees=yes

Units are S.I. units (second, meters, Newtons, ...)
Angles are in degrees.

endheader
time	pelvis_tilt	pelvis_list	pelvis_rotation	pelvis_tx	pelvis_ty	pelvis_tz	hip_flexion_r	hip_adduction_r	hip_rotation_r	knee_angle_r	knee_angle_r_beta	ankle_angle_r	subtalar_angle_r	mtp_angle_r	hip_flexion_l	hip_adduction_l	hip_rotation_l	knee_angle_l	knee_angle_l_beta	ankle_angle_l	subtalar_angle_l	mtp_angle_l	lumbar_extension	lumbar_bending	lumbar_rotation
     32.41951906	     -5.70067528	     -0.82823257	     -7.44054309	      0.05315094	      1.03027205	      0.31485188	     27.46420806	      7.92071489	      7.84453752	     37.02782513	     37.02782513	     12.34812885	    -13.25936309	      0.00000000	      9.25981277	      0.34702574	     -4.70815326	     78.08239908	     78.08239908	     -9.01563709	    -19.08599768	      0.00000000	    -14.18131370	      3.77804020	      3.20743080
     32.42951906	     -5.76581467	     -1.31878265	     -8.02129462	      0.05023941	      1.02557396	      0.31455516	     26.86852959	      8.24196745	      7.73603048	     39.04028163	     39.04028163	     15.41218829	    -11.72629680	      0.00000000	     11.90654954	     -0.62247028	     -4.95697608	     81.27008251	     81.27008251	     -8.22318925	    -19.74446219	      0.00000000	    -14.64312317	      4.37197636	      4.43059710
     32.43951906	     -5.89593202	     -1.71980017	     -8.03277056	      0.04792608	      1.02201422	      0.31379382	     25.84709713	      8.18883759	      7.26882037	     40.10357052	     40.10357052	     18.20275687	    -10.36173279	      0.00000000	     14.70707224	     -1.41308073	     -4.56902780	     83.91034881	     83.91034881	     -7.40646133	    -20.01121345	      0.00000000	    -14.86950032	      4.92362820	      5.28102541
     32.44951906	     -6.07942698	     -2.07634451	     -7.71070879	      0.04588013	      1.01993456	      0.31274252	     24.59271169	      7.88541198	      6.35156892	     40.60307370	     40.60307370	     20.60902573	     -8.81899949	      0.00000000	     17.59584892	     -2.04920829	     -3.83956019	     85.91400092	     85.91400092	     -6.82741563	    -20.20577886	      0.00000000	    -14.96286935	      5.46650469	      5.86752344
     32.45951906	     -6.24052625	     -2.63269972	     -7.28162706	      0.04417922	      1.01955435	      0.31200666	     23.07422396	      7.79101043	      5.36183244	     40.72018156	     40.72018156	     22.32840951	     -7.32120532	      0.00000000	     20.36736004	     -2.86861518	     -2.96831541	     87.23532693	     87.23532693	     -6.46624963	    -20.44161039	      0.00000000	    -15.05193223	      6.16658332	      6.39215855
     32.46951906	     -6.53378023	     -2.76776939	     -6.78316172	      0.04292369	      1.02012895	      0.31151287	     21.51254781	      7.39236988	      4.62109130	     40.41244613	     40.41244613	     23.56998963	     -6.28491348	      0.00000000	     23.17274854	     -3.18495981	     -2.17780242	     87.83292076	     87.83292076	     -5.95007362	    -20.47278751	      0.00000000	    -14.81539304	      6.31603595	      6.68276586
     32.47951906	     -6.85206544	     -2.46378801	     -6.54051614	      0.04201914	      1.02187987	      0.31178208	     19.70527165	      6.85162124	      4.72522777	     39.54234758	     39.54234758	     23.99486531	     -6.21010458	      0.00000000	     25.77044351	     -3.17090804	     -1.92066470	     87.59708683	     87.59708683	     -5.36339637	    -20.45026917	      0.00000000	    -14.46342744	      5.78408266	      7.27358306
     32.48951906	     -7.38321785	     -2.07887068	     -6.30711939	      0.04140130	      1.02424880	      0.31224420	     17.89293577	      6.32266746	      5.06537426	     38.19727017	     38.19727017	     24.21356721	     -5.99207330	      0.00000000	     28.43562676	     -3.10406063	     -1.79054763	     86.78512668	     86.78512668	     -4.89476471	    -20.49866605	      0.00000000	    -13.80158348	      5.13220505	      7.93779874
     32.49951906	     -8.06435935	     -1.47990946	     -6.18736668	      0.04115843	      1.02738578	      0.31289236	     16.11988879	      5.69104008	      5.70067774	     36.51678412	     36.51678412	     23.97455279	     -6.05601578	      0.00000000	     31.00192116	     -2.85025831	     -1.92407800	     85.31217030	     85.31217030	     -4.38619581	    -20.65229748	      0.00000000	    -12.88256057	      4.17466041	      8.72287961
     32.50951906	     -8.78777867	     -0.83161359	     -6.08546941	      0.04144130	      1.03124340	      0.31361020	     14.34316066	      4.98919574	      6.25034645	     34.67290294	     34.67290294	     23.07380010	     -6.07947783	      0.00000000	     33.31615816	     -2.56525649	     -2.22557456	     83.22195640	     83.22195640	     -3.88471115	    -20.82283405	      0.00000000	    -11.83518213	      3.12968169	      9.49819406
     32.51951906	     -8.96700136	     -0.12270546	     -6.41046294	      0.04236710	      1.03691795	      0.31523103	     11.76548473	      4.58855200	      8.25413697	     32.36441844	     32.36441844	     20.15466069	     -8.91901092	      0.00000000	     34.58019921	     -2.43876963	     -3.15597901	     80.26127550	     80.26127550	     -4.42347909	    -22.12110727	      0.00000000	    -11.40391472	      1.83592553	     10.74553220
     32.52951906	     -9.32505043	      0.60869933	     -6.37634422	      0.04370397	      1.04264049	      0.31594337	      9.60909575	      3.80011605	      9.10130167	     30.37743118	     30.37743118	     17.38873324	    -10.01456648	      0.00000000	     35.80792678	     -2.01406635	     -3.76819564	     76.82619876	     76.82619876	     -4.59198895	    -22.86599243	      0.00000000	    -10.70949315	      0.67734681	     11.53029976
     32.53951906	     -9.57432256	      1.15502048	     -6.16978178	      0.04550571	      1.04882335	      0.31635513	      7.37333350	      3.11044778	      9.59321864	     28.32280196	     28.32280196	     13.92220376	    -11.29662432	      0.00000000	     36.64643941	     -1.61757260	     -4.21108813	     72.87638528	     72.87638528	     -4.92184880	    -23.64042845	      0.00000000	    -10.15967077	     -0.23839796	     12.09447876
     32.54951906	     -9.83883514	      1.64672192	     -5.82192154	      0.04762639	      1.05505793	      0.31634997	      5.28416160	      2.39462844	      9.75629746	     26.37838603	     26.37838603	     10.11953082	    -12.33178539	      0.00000000	     37.23208797	     -1.13036777	     -4.53207072	     68.47876662	     68.47876662	     -5.05251349	    -24.07899805	      0.00000000	     -9.60554658	     -1.05052687	     12.49550772
     32.55951906	    -10.53567504	      1.89964765	     -5.44026428	      0.04955805	      1.06055655	      0.31597253	      3.94714647	      1.81810614	      9.24904756	     24.86550195	     24.86550195	      6.82492861	    -11.63632510	      0.00000000	     38.11681924	     -0.81764473	     -4.64239697	     63.82408081	     63.82408081	     -4.74199078	    -23.74962306	      0.00000000	     -8.60340639	     -1.48508538	     13.10496991
     32.56951906	    -10.09280454	      2.28080883	     -4.91067707	      0.05257241	      1.06760738	      0.31543463	      1.14290911	      1.16742787	      9.37566148	     22.77606784	     22.77606784	      1.58165613	    -13.50041615	      0.00000000	     37.32538585	     -0.05864296	     -4.68018012	     58.41337346	     58.41337346	     -4.98040411	    -23.76438258	      0.00000000	     -8.88356673	     -2.19511764	     13.14584452
     32.57951906	    -10.24146138	      2.49405798	     -4.38521514	      0.05530555	      1.07326637	      0.31470776	     -0.65327226	      0.65860233	      8.87350553	     21.25051969	     21.25051969	     -3.09722888	    -14.06382067	      0.00000000	     37.05589336	      0.50051827	     -4.57672605	     52.90979558	     52.90979558	     -4.95458670	    -22.98542814	      0.00000000	     -8.49373086	     -2.62874309	     13.27605876
     32.58951906	    -10.32503555	      2.51908723	     -3.81995857	      0.05814423	      1.07845414	      0.31396428	     -2.32693681	      0.38288566	      8.18640138	     20.01487394	     20.01487394	     -7.53802210	    -14.35067036	      0.00000000	     36.47196469	      0.98617380	     -4.21265883	     47.14504368	     47.14504368	     -4.83995845	    -21.82451080	      0.00000000	     -8.21121441	     -2.85717586	     13.37970513
     32.59951906	    -10.40166855	      2.20656423	     -3.29721987	      0.06090435	      1.08297540	      0.31349387	     -3.73971500	      0.57184021	      7.59796358	     19.26062154	     19.26062154	    -11.83538777	    -14.93344972	      0.00000000	     35.75099802	      1.14375032	     -3.59521556	     41.37853174	     41.37853174	     -4.48174191	    -20.03106931	      0.00000000	     -7.98602879	     -2.73150869	     13.48440510
     32.60951906	    -10.42171043	      1.72016310	     -2.84061879	      0.06373082	      1.08661545	      0.31295828	     -4.94983627	      0.98406258	      7.08960790	     18.96893392	     18.96893392	    -15.89184593	    -15.67744696	      0.00000000	     34.90693592	      1.11907421	     -2.85122361	     35.81838919	     35.81838919	     -3.77822474	    -17.62539953	      0.00000000	     -7.81486260	     -2.37645595	     13.59057462
     32.61951906	    -10.29699212	      1.12420669	     -2.45726782	      0.06644547	      1.08953593	      0.31251669	     -6.08957487	      1.59979452	      7.06912144	     19.07415275	     19.07415275	    -19.91781137	    -16.86489778	      0.00000000	     33.88472215	      0.91210431	     -2.06458667	     30.57095358	     30.57095358	     -2.81442192	    -14.64224194	      0.00000000	     -7.81143566	     -1.90638849	     13.74110181
     32.62951906	    -10.04315662	      0.59463213	     -2.08692438	      0.06906421	      1.09153296	      0.31194335	     -6.93755986	      2.13997577	      6.93488121	     20.03253003	     20.03253003	    -22.94658743	    -17.62592796	      0.00000000	     32.71755275	      0.73089840	     -1.35531816	     25.70156567	     25.70156567	     -2.11252571	    -11.71573638	      0.00000000	     -7.94452409	     -1.49068154	     13.73601277
     32.63951906	     -9.57807348	     -0.03817464	     -1.83332279	      0.07148556	      1.09270939	      0.31163848	     -7.72285050	      2.89914738	      7.39561434	     21.58686957	     21.58686957	    -26.13667281	    -19.11463900	      0.00000000	     31.46540203	      0.25075082	     -1.29843859	     21.59169876	     21.59169876	     -1.77517126	     -8.78436772	      0.00000000	     -8.33116027	     -0.95766229	     13.89153178
     32.64951906	     -9.09891400	     -0.40508544	     -1.57489730	      0.07348211	      1.09281875	      0.31122555	     -8.01504360	      3.39888579	      7.52325182	     24.18061398	     24.18061398	    -28.74946337	    -20.51364807	      0.00000000	     30.40304942	     -0.04100024	     -1.97985559	     18.34631622	     18.34631622	     -2.17460121	     -6.27514617	      0.00000000	     -8.74985601	     -0.73580615	     13.87757332
     32.65951906	     -8.70207271	     -0.48143659	     -1.24766678	      0.07473925	      1.09186998	      0.31066200	     -7.74816940	      3.66455879	      7.57283418	     27.81435308	     27.81435308	    -29.98680854	    -21.78733211	      0.00000000	     29.67210659	     -0.01776472	     -2.87024769	     16.08596293	     16.08596293	     -2.91363483	     -4.44217605	      0.00000000	     -9.14657473	     -0.83469911	     13.65576320
     32.66951906	     -8.31857548	     -0.50109735	     -0.90255063	      0.07550956	      1.09002796	      0.31022329	     -7.20873259	      4.00338784	      7.85504213	     32.03699978	     32.03699978	    -29.95903024	    -23.22864706	      0.00000000	     29.13447074	      0.06117107	     -3.82823400	     14.78698839	     14.78698839	     -3.16796719	     -2.95760632	      0.00000000	     -9.60157773	     -1.01649565	     13.33914093
     32.67951906	     -7.83482944	     -0.45312467	     -0.54272728	      0.07609102	      1.08735443	      0.30988442	     -6.54343833	      4.34866994	      8.12627517	     36.68010935	     36.68010935	    -28.84278664	    -24.38430794	      0.00000000	     28.61617391	      0.21469174	     -4.69696607	     14.40430286	     14.40430286	     -2.82441791	     -1.93957423	      0.00000000	    -10.20237562	     -1.29776420	     12.91966783
